<?xml version="1.0" encoding="UTF-8" standalone="no"?>
<!-- Created with Inkscape (http://www.inkscape.org/) -->

<svg
   xmlns:dc="http://purl.org/dc/elements/1.1/"
   xmlns:cc="http://creativecommons.org/ns#"
   xmlns:rdf="http://www.w3.org/1999/02/22-rdf-syntax-ns#"
   xmlns:svg="http://www.w3.org/2000/svg"
   xmlns="http://www.w3.org/2000/svg"
   xmlns:sodipodi="http://sodipodi.sourceforge.net/DTD/sodipodi-0.dtd"
   xmlns:inkscape="http://www.inkscape.org/namespaces/inkscape"
   width="48"
   height="48"
   id="svg3352"
   version="1.1"
   inkscape:version="0.91 r13725"
   viewBox="0 0 48 48"
   sodipodi:docname="load.svg">
  <defs
     id="defs3354">
    <marker
       inkscape:stockid="Arrow2Mend"
       orient="auto"
       refY="0.0"
       refX="0.0"
       id="Arrow2Mend"
       style="overflow:visible;"
       inkscape:isstock="true">
      <path
         id="path4186"
         style="fill-rule:evenodd;stroke-width:0.625;stroke-linejoin:round;stroke:#000000;stroke-opacity:1;fill:#000000;fill-opacity:1"
         d="M 8.7185878,4.0337352 L -2.2072895,0.016013256 L 8.7185884,-4.0017078 C 6.9730900,-1.6296469 6.9831476,1.6157441 8.7185878,4.0337352 z "
         transform="scale(0.6) rotate(180) translate(0,0)" />
    </marker>
    <marker
       inkscape:stockid="Arrow1Send"
       orient="auto"
       refY="0.0"
       refX="0.0"
       id="Arrow1Send"
       style="overflow:visible;"
       inkscape:isstock="true">
      <path
         id="path4174"
         d="M 0.0,0.0 L 5.0,-5.0 L -12.5,0.0 L 5.0,5.0 L 0.0,0.0 z "
         style="fill-rule:evenodd;stroke:#000000;stroke-width:1pt;stroke-opacity:1;fill:#000000;fill-opacity:1"
         transform="scale(0.2) rotate(180) translate(6,0)" />
    </marker>
    <marker
       inkscape:isstock="true"
       style="overflow:visible;"
       id="marker4484"
       refX="0.0"
       refY="0.0"
       orient="auto"
       inkscape:stockid="Arrow2Send">
      <path
         transform="scale(0.3) rotate(180) translate(-2.3,0)"
         d="M 8.7185878,4.0337352 L -2.2072895,0.016013256 L 8.7185884,-4.0017078 C 6.9730900,-1.6296469 6.9831476,1.6157441 8.7185878,4.0337352 z "
         style="fill-rule:evenodd;stroke-width:0.625;stroke-linejoin:round;stroke:#000000;stroke-opacity:1;fill:#000000;fill-opacity:1"
         id="path4486" />
    </marker>
    <marker
       inkscape:isstock="true"
       style="overflow:visible;"
       id="Arrow2Send"
       refX="0.0"
       refY="0.0"
       orient="auto"
       inkscape:stockid="Arrow2Send">
      <path
         transform="scale(0.3) rotate(180) translate(-2.3,0)"
         d="M 8.7185878,4.0337352 L -2.2072895,0.016013256 L 8.7185884,-4.0017078 C 6.9730900,-1.6296469 6.9831476,1.6157441 8.7185878,4.0337352 z "
         style="fill-rule:evenodd;stroke-width:0.625;stroke-linejoin:round;stroke:#000000;stroke-opacity:1;fill:#000000;fill-opacity:1"
         id="path4183" />
    </marker>
    <marker
       inkscape:isstock="true"
       style="overflow:visible;"
       id="Arrow1Send-0"
       refX="0.0"
       refY="0.0"
       orient="auto"
       inkscape:stockid="Arrow1Send">
      <path
         transform="scale(0.2) rotate(180) translate(6,0)"
         style="fill-rule:evenodd;stroke:#000000;stroke-width:1pt;stroke-opacity:1;fill:#000000;fill-opacity:1"
         d="M 0.0,0.0 L 5.0,-5.0 L -12.5,0.0 L 5.0,5.0 L 0.0,0.0 z "
         id="path4165-0" />
    </marker>
    <marker
       inkscape:isstock="true"
       style="overflow:visible;"
       id="Arrow1Mend"
       refX="0.0"
       refY="0.0"
       orient="auto"
       inkscape:stockid="Arrow1Mend">
      <path
         transform="scale(0.4) rotate(180) translate(10,0)"
         style="fill-rule:evenodd;stroke:#000000;stroke-width:1pt;stroke-opacity:1;fill:#000000;fill-opacity:1"
         d="M 0.0,0.0 L 5.0,-5.0 L -12.5,0.0 L 5.0,5.0 L 0.0,0.0 z "
         id="path4159" />
    </marker>
  </defs>
  <sodipodi:namedview
     id="base"
     pagecolor="#ffffff"
     bordercolor="#666666"
     borderopacity="1.0"
     inkscape:pageopacity="0.0"
     inkscape:pageshadow="2"
     inkscape:zoom="9.899495"
     inkscape:cx="20.732411"
     inkscape:cy="22.185427"
     inkscape:current-layer="layer1"
     showgrid="true"
     inkscape:grid-bbox="true"
     inkscape:document-units="px"
     inkscape:window-width="1920"
     inkscape:window-height="1016"
     inkscape:window-x="0"
     inkscape:window-y="27"
     inkscape:window-maximized="1" />
  <metadata
     id="metadata3357">
    <rdf:RDF>
      <cc:Work
         rdf:about="">
        <dc:format>image/svg+xml</dc:format>
        <dc:type
           rdf:resource="http://purl.org/dc/dcmitype/StillImage" />
        <dc:title />
      </cc:Work>
    </rdf:RDF>
  </metadata>
  <g
     id="layer1"
     inkscape:label="Layer 1"
     inkscape:groupmode="layer">
    <path
       id="path4642"
       d="m -130.31105,-22.971631 c -0.92231,0 -1.596,0.481206 -2.02374,1.443616 l -3.9646,10.19888 c 1.0648,1.188179 2.12974,2.375593 3.19467,3.563593 l 2.79367,-7.204715 3.48874,9.001215 -4.67304,0 c 0.67281,0.750404 1.34545,1.500688 2.01839,2.250973 a 1.4103207,1.4103207 0 0 1 -0.11763,1.999675 l 4.4164,0 3.71063,9.525193 c 0.10694,0.240601 0.26733,0.467829 0.4812,0.681712 0.40101,0.414365 0.89558,0.620213 1.48372,0.620213 0.58814,0 1.08806,-0.205848 1.50243,-0.620213 0.41437,-0.414379 0.62289,-0.916975 0.62289,-1.505105 0,-0.307439 -0.0535,-0.593491 -0.1604,-0.860826 l -10.74692,-27.650595 c -0.40101,-0.96241 -1.07737,-1.443616 -2.02641,-1.443616 z m -5.72902,22.774379 c -1.66106,0.342425 -3.32225,0.686356 -4.98315,1.029245 l -2.01839,5.188999 c -0.14703,0.320803 -0.22189,0.641609 -0.22189,0.962414 0,0.58813 0.20051,1.090726 0.60151,1.505105 0.41437,0.414365 0.91696,0.620213 1.5051,0.620213 0.58814,0 1.08806,-0.205848 1.50243,-0.620213 0.21387,-0.213883 0.37427,-0.441111 0.48121,-0.681712 l 3.13318,-8.004051 z"
       style="font-style:normal;font-variant:normal;font-weight:bold;font-stretch:normal;font-size:30px;line-height:125%;font-family:Comfortaa;-inkscape-font-specification:'Comfortaa, Bold';text-align:start;letter-spacing:0px;word-spacing:0px;writing-mode:lr-tb;text-anchor:start;fill:#454837;fill-opacity:1;stroke:none;stroke-width:1px;stroke-linecap:butt;stroke-linejoin:miter;stroke-opacity:1"
       inkscape:connector-curvature="0" />
    <g
       id="g4265"
       transform="translate(4.681653,3.2162181)">
      <text
         sodipodi:linespacing="125%"
         id="text4161"
         y="35.25"
         x="18.156385"
         style="font-style:normal;font-variant:normal;font-weight:normal;font-stretch:normal;font-size:27.5px;line-height:125%;font-family:'Droid Sans';-inkscape-font-specification:'Droid Sans, Normal';text-align:start;letter-spacing:0px;word-spacing:0px;writing-mode:lr-tb;text-anchor:start;fill:#454837;fill-opacity:1;stroke:none;stroke-width:1px;stroke-linecap:butt;stroke-linejoin:miter;stroke-opacity:1"
         xml:space="preserve"><tspan
           style="font-style:normal;font-variant:normal;font-weight:bold;font-stretch:normal;font-size:30px;line-height:125%;font-family:Comfortaa;-inkscape-font-specification:'Comfortaa, Bold';text-align:start;writing-mode:lr-tb;text-anchor:start"
           y="35.25"
           x="18.156385"
           id="tspan4163"
           sodipodi:role="line">A</tspan></text>
      <path
         sodipodi:open="true"
         style="fill:none;stroke:#d40000;stroke-width:4;stroke-linecap:round;stroke-miterlimit:4;stroke-dasharray:none"
         id="path4273"
         sodipodi:type="arc"
         sodipodi:cx="17.731611"
         sodipodi:cy="23.019684"
         sodipodi:rx="13.072886"
         sodipodi:ry="12.891699"
         sodipodi:start="2.3046892"
         sodipodi:end="5.1748836"
         d="M 8.9758436,32.592708 A 13.072886,12.891699 0 0 1 6.9287772,15.759713 13.072886,12.891699 0 0 1 23.564498,11.482358"
         transform="matrix(0.99561642,0.09353048,-0.09353048,0.99561642,0,0)" />
      <path
         clip-path="none"
         mask="none"
         inkscape:transform-center-y="0.35159757"
         inkscape:transform-center-x="-3.6493424"
         transform="matrix(0.62332643,0.15250451,-0.15250451,0.62332643,8.8553107,-5.5925948)"
         d="m 19.900391,14.177734 a 1.2165063,1.2165063 0 0 0 -1.212891,1.125 c -0.376871,5.031856 -0.753287,10.063649 -1.128906,15.095704 a 1.2165063,1.2165063 0 0 0 1.736328,1.1875 c 4.560348,-2.169954 9.120644,-4.334534 13.683594,-6.5 a 1.2165063,1.2165063 0 0 0 0.166015,-2.103516 c -4.1863,-2.862435 -8.371162,-5.727229 -12.55664,-8.591797 a 1.2165063,1.2165063 0 0 0 -0.6875,-0.212891 z"
         id="path4285"
         style="color:#000000;font-style:normal;font-variant:normal;font-weight:normal;font-stretch:normal;font-size:medium;line-height:normal;font-family:sans-serif;text-indent:0;text-align:start;text-decoration:none;text-decoration-line:none;text-decoration-style:solid;text-decoration-color:#000000;letter-spacing:normal;word-spacing:normal;text-transform:none;direction:ltr;block-progression:tb;writing-mode:lr-tb;baseline-shift:baseline;text-anchor:start;white-space:normal;clip-rule:nonzero;display:inline;overflow:visible;visibility:visible;opacity:1;isolation:auto;mix-blend-mode:normal;color-interpolation:sRGB;color-interpolation-filters:linearRGB;solid-color:#000000;solid-opacity:1;fill:#d40000;fill-opacity:1;fill-rule:nonzero;stroke:none;stroke-width:5.07118559;stroke-linecap:round;stroke-linejoin:miter;stroke-miterlimit:4;stroke-dasharray:none;stroke-dashoffset:0;stroke-opacity:1;color-rendering:auto;image-rendering:auto;shape-rendering:auto;text-rendering:auto;enable-background:accumulate"
         inkscape:original="M 19.900391 15.394531 C 19.523524 20.426338 19.147092 25.45638 18.771484 30.488281 C 23.332398 28.318058 27.893898 26.151881 32.457031 23.986328 C 28.270367 21.123644 24.085799 18.259051 19.900391 15.394531 z "
         inkscape:radius="1.2163846"
         sodipodi:type="inkscape:offset" />
    </g>
    <path
       style="font-style:normal;font-variant:normal;font-weight:bold;font-stretch:normal;font-size:30px;line-height:125%;font-family:Comfortaa;-inkscape-font-specification:'Comfortaa, Bold';text-align:start;letter-spacing:0px;word-spacing:0px;writing-mode:lr-tb;text-anchor:start;fill:#454837;fill-opacity:1;stroke:none;stroke-width:1px;stroke-linecap:butt;stroke-linejoin:miter;stroke-opacity:1"
       d="m -64.482378,-8.939863 c -0.836244,0 -1.448835,0.436883 -1.836658,1.310904 L -71.79071,6.472399 c 1.894995,1.296835 3.790501,2.593152 5.685806,3.889189 l 6.275974,0 3.36344,8.648833 c 0.097,0.218504 0.24305,0.425535 0.43696,0.619763 0.36359,0.376315 0.81073,0.564054 1.34398,0.564054 0.53326,0 0.98743,-0.187739 1.36314,-0.564054 0.3757,-0.376314 0.56405,-0.832489 0.56405,-1.366613 0,-0.279202 -0.0475,-0.538884 -0.1445,-0.781668 l -9.74386,-25.110862 c -0.36358,-0.874021 -0.97617,-1.310904 -1.836658,-1.310904 z m 0,7.264811 3.163228,8.177047 -6.326458,0 3.16323,-8.177047 z m -6.794765,17.513537 c -1.646779,0.782331 -3.294145,1.563642 -4.940697,2.346745 -0.0011,0.0261 -0.0087,0.05224 -0.0087,0.07834 0,0.534124 0.18132,0.990299 0.544904,1.366613 0.375705,0.376315 0.831615,0.564054 1.364872,0.564054 0.533257,0 0.987427,-0.187739 1.363131,-0.564054 0.193913,-0.194227 0.338272,-0.401259 0.435227,-0.619763 l 1.241268,-3.171936 z"
       id="path4258"
       inkscape:connector-curvature="0" />
    <g
       id="g4231"
       transform="translate(-224.67978,-24.184202)">
      <text
         sodipodi:linespacing="125%"
         id="text4161-6"
         y="35.25"
         x="17.922356"
         style="font-style:normal;font-variant:normal;font-weight:normal;font-stretch:normal;font-size:27.5px;line-height:125%;font-family:'Droid Sans';-inkscape-font-specification:'Droid Sans, Normal';text-align:start;letter-spacing:0px;word-spacing:0px;writing-mode:lr-tb;text-anchor:start;fill:#454837;fill-opacity:1;stroke:none;stroke-width:1px;stroke-linecap:butt;stroke-linejoin:miter;stroke-opacity:1"
         xml:space="preserve"><tspan
           style="font-style:normal;font-variant:normal;font-weight:bold;font-stretch:normal;font-size:30px;line-height:125%;font-family:Comfortaa;-inkscape-font-specification:'Comfortaa, Bold';text-align:start;writing-mode:lr-tb;text-anchor:start"
           y="35.25"
           x="17.922356"
           id="tspan4163-2"
           sodipodi:role="line">A</tspan></text>
      <g
         id="g4226">
        <path
           style="fill:none;fill-rule:evenodd;stroke:#454837;stroke-width:4;stroke-linecap:round;stroke-linejoin:miter;stroke-miterlimit:4;stroke-dasharray:none;stroke-opacity:1"
           d="m 14.023374,9.2249806 0,29.5500384"
           id="path4165-9"
           inkscape:connector-curvature="0" />
        <path
           style="fill:none;fill-rule:evenodd;stroke:#454837;stroke-width:4;stroke-linecap:round;stroke-linejoin:miter;stroke-miterlimit:4;stroke-dasharray:none;stroke-opacity:1"
           d="m 11.599008,9.2037669 4.848732,0"
           id="path4167-1"
           inkscape:connector-curvature="0"
           sodipodi:nodetypes="cc" />
        <path
           sodipodi:nodetypes="cc"
           inkscape:connector-curvature="0"
           id="path4212-2"
           d="m 11.599008,38.796233 4.848732,0"
           style="fill:none;fill-rule:evenodd;stroke:#454837;stroke-width:4;stroke-linecap:round;stroke-linejoin:miter;stroke-miterlimit:4;stroke-dasharray:none;stroke-opacity:1" />
      </g>
    </g>
    <text
       sodipodi:linespacing="125%"
       id="text4209"
       y="3.4579618"
       x="-116.16684"
       style="font-style:normal;font-variant:normal;font-weight:normal;font-stretch:normal;font-size:27.5px;line-height:125%;font-family:'Droid Sans';-inkscape-font-specification:'Droid Sans, Normal';text-align:start;letter-spacing:0px;word-spacing:0px;writing-mode:lr-tb;text-anchor:start;fill:#454837;fill-opacity:1;stroke:none;stroke-width:1px;stroke-linecap:butt;stroke-linejoin:miter;stroke-opacity:1"
       xml:space="preserve"><tspan
         style="font-style:normal;font-variant:normal;font-weight:bold;font-stretch:normal;font-size:30px;line-height:125%;font-family:Comfortaa;-inkscape-font-specification:'Comfortaa, Bold';text-align:start;writing-mode:lr-tb;text-anchor:start"
         y="3.4579618"
         x="-116.16684"
         id="tspan4211"
         sodipodi:role="line">A</tspan></text>
    <path
       inkscape:connector-curvature="0"
       id="path4215"
       d="m -174.49295,47.872266 0,29.550041"
       style="fill:none;fill-rule:evenodd;stroke:#454837;stroke-width:4;stroke-linecap:round;stroke-linejoin:miter;stroke-miterlimit:4;stroke-dasharray:none;stroke-opacity:1" />
    <path
       sodipodi:nodetypes="cc"
       inkscape:connector-curvature="0"
       id="path4217"
       d="m -176.91731,47.851052 4.84873,0"
       style="fill:none;fill-rule:evenodd;stroke:#454837;stroke-width:4;stroke-linecap:round;stroke-linejoin:miter;stroke-miterlimit:4;stroke-dasharray:none;stroke-opacity:1" />
    <path
       style="fill:none;fill-rule:evenodd;stroke:#454837;stroke-width:4;stroke-linecap:round;stroke-linejoin:miter;stroke-miterlimit:4;stroke-dasharray:none;stroke-opacity:1"
       d="m -176.91731,77.443517 4.84873,0"
       id="path4219"
       inkscape:connector-curvature="0"
       sodipodi:nodetypes="cc" />
    <path
       inkscape:connector-curvature="0"
       style="font-style:normal;font-variant:normal;font-weight:bold;font-stretch:normal;font-size:30px;line-height:125%;font-family:Comfortaa;-inkscape-font-specification:'Comfortaa, Bold';text-align:start;letter-spacing:0px;word-spacing:0px;writing-mode:lr-tb;text-anchor:start;fill:#454837;fill-opacity:1;stroke:none;stroke-width:1px;stroke-linecap:butt;stroke-linejoin:miter;stroke-opacity:1"
       d="m -98.586524,53.691648 c -0.673828,0 -1.166016,0.351563 -1.478516,1.054688 l -2.89648,7.451172 c 0.77792,0.868068 1.55595,1.735578 2.33398,2.603515 l 2.041016,-5.263672 2.548828,6.576172 -3.414063,0 c 0.49155,0.548236 0.982973,1.096384 1.47461,1.644532 a 1.0303623,1.0303623 0 0 1 -0.08594,1.460937 l 3.226563,0 2.710937,6.958985 c 0.07813,0.17578 0.195313,0.34179 0.351563,0.49805 0.292969,0.30273 0.654297,0.45312 1.083984,0.45312 0.429687,0 0.794922,-0.15039 1.097656,-0.45312 0.302734,-0.30274 0.455078,-0.66993 0.455078,-1.09961 0,-0.224611 -0.03906,-0.433597 -0.117187,-0.628909 l -7.851561,-20.201172 c -0.292968,-0.703125 -0.787109,-1.054688 -1.480468,-1.054688 z m -4.185546,16.638672 c -1.21355,0.250171 -2.42719,0.501443 -3.64063,0.751953 l -1.47461,3.791016 c -0.10742,0.234375 -0.16211,0.468752 -0.16211,0.703128 0,0.42968 0.14649,0.79687 0.43946,1.09961 0.30273,0.30273 0.66992,0.45312 1.09961,0.45312 0.42969,0 0.79492,-0.15039 1.09765,-0.45312 0.15625,-0.15626 0.27344,-0.32227 0.35157,-0.49805 l 2.28906,-5.847657 z"
       id="path4637" />
  </g>
</svg>
